<svg id="Layer_1" data-name="Layer 1" xmlns="http://www.w3.org/2000/svg" viewBox="0 0 1651 673"><defs><style>.cls-1{fill:#eaeaea;}.cls-2,.cls-3{fill:none;stroke:#b3b3b3;stroke-linecap:round;stroke-linejoin:round;stroke-width:6px;}.cls-3{stroke-dasharray:19.55 19.55;}</style></defs><path class="cls-1" d="M1651,54.87V618.13A54.87,54.87,0,0,1,1596.13,673H177.51a9.72,9.72,0,0,1-9.42-7.35,30,30,0,0,0-58.18,0,9.72,9.72,0,0,1-9.42,7.35H54.87A54.87,54.87,0,0,1,0,618.13V54.87A54.87,54.87,0,0,1,54.87,0h45.62a9.72,9.72,0,0,1,9.42,7.35,30,30,0,0,0,58.18,0A9.72,9.72,0,0,1,177.51,0H1596.13A54.87,54.87,0,0,1,1651,54.87Z"/><polyline class="cls-2" points="139 53 139 43 139 53"/><line class="cls-3" x1="139" y1="72.55" x2="139" y2="610.22"/><polyline class="cls-2" points="139 620 139 630 139 620"/><line class="cls-3" x1="139" y1="600.45" x2="139" y2="62.78"/></svg>