<svg id="Layer_1" data-name="Layer 1" xmlns="http://www.w3.org/2000/svg" viewBox="0 0 673 1651"><defs><style>.cls-1{fill:#eaeaea;}.cls-2,.cls-3{fill:none;stroke:#b3b3b3;stroke-linecap:round;stroke-linejoin:round;stroke-width:6px;}.cls-3{stroke-dasharray:19.55 19.55;}</style></defs><path class="cls-1" d="M618.13,1651H54.87A54.87,54.87,0,0,1,0,1596.13V177.51a9.72,9.72,0,0,1,7.35-9.42,30,30,0,0,0,0-58.18A9.72,9.72,0,0,1,0,100.49V54.87A54.87,54.87,0,0,1,54.87,0H618.13A54.87,54.87,0,0,1,673,54.87v45.62a9.72,9.72,0,0,1-7.35,9.42,30,30,0,0,0,0,58.18,9.72,9.72,0,0,1,7.35,9.42V1596.13A54.87,54.87,0,0,1,618.13,1651Z"/><polyline class="cls-2" points="620 139 630 139 620 139"/><line class="cls-3" x1="600.45" y1="139" x2="62.78" y2="139"/><polyline class="cls-2" points="53 139 43 139 53 139"/><line class="cls-3" x1="72.55" y1="139" x2="610.22" y2="139"/></svg>